<svg xmlns="http://www.w3.org/2000/svg" xmlns:xlink="http://www.w3.org/1999/xlink" width="500" zoomAndPan="magnify" viewBox="0 0 375 374.999991" height="500" preserveAspectRatio="xMidYMid meet" version="1.2"><defs><clipPath id="c9f59c0311"><path d="M 52 170 L 104 170 L 104 244 L 52 244 Z M 52 170 "/></clipPath><clipPath id="07612a18da"><path d="M 70.359375 240.671875 C 75.273438 218.707031 86.585938 198.632812 103.058594 182.917969 C 99.316406 178.734375 95.582031 174.542969 91.84375 170.355469 C 71.925781 190.683594 58.4375 215.695312 52.480469 243.261719 Z M 70.359375 240.671875 "/></clipPath><clipPath id="f558231add"><path d="M 33 156 L 92 156 L 92 247 L 33 247 Z M 33 156 "/></clipPath><clipPath id="49b5a34a19"><path d="M 91.289062 169.734375 C 87.359375 165.332031 83.421875 160.929688 79.496094 156.519531 C 54.25 180.242188 38.007812 211.808594 33.496094 246.015625 L 51.601562 243.390625 C 57.558594 215.53125 71.164062 190.265625 91.289062 169.734375 Z M 91.289062 169.734375 "/></clipPath><clipPath id="c04ad320ca"><path d="M 50 242 L 70 242 L 70 254 L 50 254 Z M 50 242 "/></clipPath><clipPath id="c88ba62499"><path d="M 52.03125 245.28125 C 51.644531 247.199219 51.296875 249.132812 50.984375 251.074219 L 68.21875 253.570312 C 68.617188 249.816406 69.210938 246.109375 69.964844 242.441406 Z M 52.03125 245.28125 "/></clipPath><clipPath id="2e1373c251"><path d="M 71 183 L 114 183 L 114 241 L 71 241 Z M 71 183 "/></clipPath><clipPath id="6a5044e554"><path d="M 71.234375 240.542969 L 87.195312 238.226562 C 92.523438 221.972656 101.503906 207.207031 113.597656 194.671875 C 110.265625 190.964844 106.941406 187.246094 103.609375 183.53125 C 87.351562 199.058594 76.152344 218.863281 71.234375 240.542969 Z M 71.234375 240.542969 "/></clipPath><clipPath id="a38add1437"><path d="M 32 245 L 52 245 L 52 251 L 32 251 Z M 32 245 "/></clipPath><clipPath id="560e96cab7"><path d="M 32.398438 248.382812 L 50.15625 250.960938 C 50.453125 249.105469 50.789062 247.257812 51.152344 245.421875 Z M 32.398438 248.382812 "/></clipPath><clipPath id="a3910b9806"><path d="M 40 102 L 41 102 L 41 103 L 40 103 Z M 40 102 "/></clipPath><clipPath id="ad697308c3"><path d="M 40.601562 102.851562 C 40.601562 102.851562 40.546875 102.824219 40.566406 102.859375 L 40.660156 102.96875 C 40.652344 102.953125 40.644531 102.929688 40.644531 102.917969 C 40.644531 102.882812 40.632812 102.867188 40.601562 102.851562 Z M 40.601562 102.851562 "/></clipPath><clipPath id="51cc415cf1"><path d="M 144 229 L 146 229 L 146 231 L 144 231 Z M 144 229 "/></clipPath><clipPath id="d455f04d6c"><path d="M 145.007812 229.558594 C 144.828125 229.730469 144.648438 229.90625 144.480469 230.085938 L 145.371094 229.957031 C 145.242188 229.820312 145.121094 229.6875 145.007812 229.558594 Z M 145.007812 229.558594 "/></clipPath><clipPath id="736ddc7042"><path d="M 69 239 L 87 239 L 87 256 L 69 256 Z M 69 239 "/></clipPath><clipPath id="9eb8dd79f3"><path d="M 70.84375 242.3125 C 70.058594 246.058594 69.445312 249.855469 69.039062 253.699219 L 82.957031 255.71875 C 83.832031 250.289062 85.117188 244.980469 86.730469 239.808594 Z M 70.84375 242.3125 "/></clipPath><clipPath id="771e7c0f69"><path d="M 88 195 L 124 195 L 124 239 L 88 239 Z M 88 195 "/></clipPath><clipPath id="e2ad6d9274"><path d="M 96.453125 236.882812 L 103.335938 235.90625 C 107.652344 224.515625 114.472656 214.175781 123.355469 205.515625 C 120.289062 202.105469 117.214844 198.703125 114.144531 195.292969 C 102.261719 207.621094 93.421875 222.136719 88.121094 238.089844 Z M 96.453125 236.882812 "/></clipPath><clipPath id="b19373e446"><path d="M 123 217 L 145 217 L 145 234 L 123 234 Z M 123 217 "/></clipPath><clipPath id="0ba21f973c"><path d="M 143.101562 230.277344 C 143.539062 229.820312 143.992188 229.386719 144.449219 228.945312 C 141.117188 225.261719 137.808594 221.5625 134.484375 217.878906 C 130.203125 222.558594 126.5 227.644531 123.425781 233.066406 Z M 143.101562 230.277344 "/></clipPath><clipPath id="dad63dcf7d"><path d="M 104 206 L 134 206 L 134 236 L 104 236 Z M 104 206 "/></clipPath><clipPath id="d8ff14f995"><path d="M 122.398438 233.210938 C 125.582031 227.503906 129.433594 222.152344 133.929688 217.257812 C 130.589844 213.554688 127.25 209.847656 123.910156 206.136719 C 115.238281 214.605469 108.523438 224.679688 104.25 235.785156 Z M 122.398438 233.210938 "/></clipPath><clipPath id="89946ebf9b"><path d="M 99 234 L 122 234 L 122 261 L 99 261 Z M 99 234 "/></clipPath><clipPath id="dfde195d49"><path d="M 103.816406 237.085938 C 101.363281 243.789062 99.722656 250.816406 99.050781 258.050781 L 112.953125 260.070312 C 114.496094 250.921875 117.527344 242.214844 121.871094 234.171875 Z M 103.816406 237.085938 "/></clipPath><clipPath id="70eb98ce4d"><path d="M 190 252 L 346 252 L 346 337 L 190 337 Z M 190 252 "/></clipPath><clipPath id="ba4165104a"><path d="M 190.171875 336.738281 L 345.839844 280.238281 L 345.890625 269.929688 L 345.890625 252.972656 L 190.171875 299.085938 Z M 190.171875 336.738281 "/></clipPath><clipPath id="210f51686f"><path d="M 167 258 L 182 258 L 182 271 L 167 271 Z M 167 258 "/></clipPath><clipPath id="3468d32bc1"><path d="M 167.691406 268.007812 L 181.6875 270.042969 L 171.445312 258.769531 C 169.675781 261.601562 168.40625 264.742188 167.691406 268.007812 Z M 167.691406 268.007812 "/></clipPath><clipPath id="2b2ccc5a7d"><path d="M 83 237 L 103 237 L 103 258 L 83 258 Z M 83 237 "/></clipPath><clipPath id="12dc011ae0"><path d="M 96.660156 238.234375 L 87.628906 239.660156 C 85.96875 244.917969 84.667969 250.308594 83.777344 255.832031 L 98.238281 257.929688 C 98.902344 250.789062 100.511719 243.855469 102.894531 237.226562 Z M 96.660156 238.234375 "/></clipPath><clipPath id="a8166fa439"><path d="M 155 249 L 171 249 L 171 268 L 155 268 Z M 155 249 "/></clipPath><clipPath id="2d96047dfd"><path d="M 163.199219 249.683594 C 158.933594 254.25 156.265625 260.035156 155.578125 266.246094 L 166.878906 267.886719 C 167.621094 264.433594 168.984375 261.125 170.882812 258.136719 Z M 163.199219 249.683594 "/></clipPath><clipPath id="9bf9919d10"><path d="M -789.902344 -7.800781 L -789.902344 386.28125 L 393.1875 386.28125 L 393.1875 -7.800781 Z M 351.605469 284.410156 L 336.988281 289.519531 L 188.089844 344.890625 L 187.523438 345.097656 L 186.960938 344.890625 L 24.351562 284.402344 L 24.914062 247.550781 L 32.648438 246.136719 C 37.136719 211.644531 53.492188 179.8125 78.949219 155.902344 C 77.207031 153.945312 75.457031 152 73.71875 150.042969 L 52.144531 125.601562 L 41.367188 113.375 L 35.980469 107.261719 L 35.808594 107.070312 L 35.507812 106.648438 C 35.300781 106.339844 35.117188 106.035156 34.945312 105.714844 C 34.609375 105.070312 34.445312 104.335938 34.359375 103.625 C 34.238281 102.160156 34.632812 100.699219 35.542969 99.535156 C 36.066406 98.816406 36.265625 98.6875 36.5 98.445312 L 37.226562 97.730469 L 38.683594 96.304688 L 61.925781 73.433594 L 73.554688 62.011719 L 82.308594 53.480469 L 83.035156 52.765625 L 83.398438 52.410156 C 83.589844 52.214844 83.882812 51.96875 84.15625 51.789062 C 85.140625 51.117188 86.296875 50.859375 87.367188 50.902344 L 136.6875 42.121094 L 161.492188 37.714844 L 173.890625 35.507812 L 180.089844 34.402344 L 183.195312 33.855469 L 184.742188 33.574219 C 185.300781 33.496094 185.648438 33.347656 186.539062 33.367188 C 187.425781 33.355469 187.808594 33.511719 188.351562 33.605469 L 189.894531 33.917969 L 192.980469 34.546875 L 199.152344 35.800781 L 211.496094 38.3125 L 236.179688 43.335938 C 236.179688 43.335938 282.734375 52.4375 285.402344 53.121094 C 285.464844 53.136719 285.515625 53.179688 285.578125 53.195312 C 288.339844 53.679688 292.949219 58.617188 292.949219 58.617188 C 292.949219 58.617188 332.769531 98.421875 334.773438 100.949219 C 334.773438 100.949219 334.546875 101.253906 334.363281 101.078125 C 331.050781 97.886719 299.820312 67.398438 290.835938 58.617188 C 289.882812 57.679688 287.0625 55.292969 286.035156 54.878906 C 285.453125 54.640625 284.851562 54.441406 284.222656 54.328125 L 235.914062 44.699219 L 211.109375 40.28125 L 198.710938 38.078125 L 192.511719 36.972656 L 189.40625 36.421875 L 187.859375 36.144531 C 187.367188 36.050781 186.726562 35.921875 186.554688 35.992188 L 137.410156 45.925781 L 88.070312 55.96875 L 87.25 56.003906 L 43.121094 100.71875 L 41.6875 102.167969 L 40.78125 103.089844 L 46.152344 109.125 L 56.988281 121.292969 L 78.65625 145.65625 C 107.410156 178.242188 136.117188 210.882812 164.484375 243.824219 L 185.796875 268.496094 C 186.078125 268.867188 186.082031 268.6875 186.167969 268.800781 C 186.226562 268.894531 186.277344 268.972656 186.382812 268.9375 C 186.5625 269.042969 186.777344 268.921875 186.941406 268.878906 C 187.070312 268.824219 187.070312 268.859375 187.226562 268.679688 L 187.910156 267.921875 L 189.28125 266.417969 L 194.757812 260.382812 L 205.714844 248.320312 C 205.714844 248.320312 331.078125 109.109375 331.109375 109.117188 C 331.265625 109.152344 330.824219 110.351562 330.617188 110.578125 L 229.414062 225.875 C 229.414062 225.882812 229.414062 225.882812 229.421875 225.890625 L 351.296875 247.535156 L 351.605469 284.382812 C 351.605469 284.402344 351.605469 284.402344 351.605469 284.410156 Z M 99.835938 56.390625 L 186.449219 39.882812 L 273.015625 56.390625 L 186.449219 82.070312 Z M 185.449219 87.164062 L 185.441406 149.707031 L 47.082031 101.613281 L 89.910156 58.835938 Z M 189.238281 155.542969 L 323.539062 108.851562 L 189.222656 260.453125 Z M 189.238281 155.542969 "/></clipPath><clipPath id="2c66e92548"><path d="M 143 240 L 163 240 L 163 267 L 143 267 Z M 143 240 "/></clipPath><clipPath id="d570df0e42"><path d="M 160.824219 247.070312 C 158.847656 244.910156 156.890625 242.726562 154.929688 240.550781 C 149.246094 247.5 145.429688 255.71875 143.824219 264.542969 L 154.757812 266.125 C 155.472656 259.726562 158.234375 253.761719 162.640625 249.0625 Z M 160.824219 247.070312 "/></clipPath><clipPath id="86c50499c9"><path d="M 113 230 L 143 230 L 143 263 L 113 263 Z M 113 230 "/></clipPath><clipPath id="c0d98fd4a2"><path d="M 122.90625 234.003906 C 118.441406 242.113281 115.335938 250.921875 113.773438 260.183594 L 128.476562 262.316406 C 129.582031 250.496094 134.511719 239.503906 142.539062 230.835938 Z M 122.90625 234.003906 "/></clipPath><clipPath id="34633d5630"><path d="M 129 230 L 155 230 L 155 265 L 129 265 Z M 129 230 "/></clipPath><clipPath id="79a108115d"><path d="M 145.699219 230.328125 L 143.945312 230.613281 C 135.574219 239.273438 130.417969 250.417969 129.296875 262.4375 L 143.003906 264.429688 C 144.644531 255.410156 148.546875 247.019531 154.375 239.9375 C 151.484375 236.726562 148.59375 233.523438 145.699219 230.328125 Z M 145.699219 230.328125 "/></clipPath></defs><g id="4ac4b2520b"><rect x="0" width="375" y="0" height="374.999991" style="fill:#ffffff;fill-opacity:1;stroke:none;"/><rect x="0" width="375" y="0" height="374.999991" style="fill:#ffffff;fill-opacity:1;stroke:none;"/><path style=" stroke:none;fill-rule:nonzero;fill:#000000;fill-opacity:1;" d="M 155.859375 365.765625 L 155.816406 365.757812 C 155.785156 365.757812 155.757812 365.757812 155.730469 365.757812 Z M 155.859375 365.765625 "/><g clip-rule="nonzero" clip-path="url(#c9f59c0311)"><g clip-rule="nonzero" clip-path="url(#07612a18da)"><path style=" stroke:none;fill-rule:nonzero;fill:#2563eb;fill-opacity:1;" d="M 52.480469 170.355469 L 52.480469 243.261719 L 103.058594 243.261719 L 103.058594 170.355469 Z M 52.480469 170.355469 "/></g></g><g clip-rule="nonzero" clip-path="url(#f558231add)"><g clip-rule="nonzero" clip-path="url(#49b5a34a19)"><path style=" stroke:none;fill-rule:nonzero;fill:#2563eb;fill-opacity:1;" d="M 33.496094 156.519531 L 33.496094 246.015625 L 91.289062 246.015625 L 91.289062 156.519531 Z M 33.496094 156.519531 "/></g></g><g clip-rule="nonzero" clip-path="url(#c04ad320ca)"><g clip-rule="nonzero" clip-path="url(#c88ba62499)"><path style=" stroke:none;fill-rule:nonzero;fill:#2563eb;fill-opacity:1;" d="M 50.984375 242.441406 L 50.984375 253.570312 L 69.964844 253.570312 L 69.964844 242.441406 Z M 50.984375 242.441406 "/></g></g><g clip-rule="nonzero" clip-path="url(#2e1373c251)"><g clip-rule="nonzero" clip-path="url(#6a5044e554)"><path style=" stroke:none;fill-rule:nonzero;fill:#2563eb;fill-opacity:1;" d="M 71.234375 183.53125 L 71.234375 240.542969 L 113.597656 240.542969 L 113.597656 183.53125 Z M 71.234375 183.53125 "/></g></g><g clip-rule="nonzero" clip-path="url(#a38add1437)"><g clip-rule="nonzero" clip-path="url(#560e96cab7)"><path style=" stroke:none;fill-rule:nonzero;fill:#2563eb;fill-opacity:1;" d="M 32.398438 245.421875 L 32.398438 250.960938 L 51.152344 250.960938 L 51.152344 245.421875 Z M 32.398438 245.421875 "/></g></g><g clip-rule="nonzero" clip-path="url(#a3910b9806)"><g clip-rule="nonzero" clip-path="url(#ad697308c3)"><path style=" stroke:none;fill-rule:nonzero;fill:#2563eb;fill-opacity:1;" d="M 40.546875 102.824219 L 40.546875 102.96875 L 40.660156 102.96875 L 40.660156 102.824219 Z M 40.546875 102.824219 "/></g></g><g clip-rule="nonzero" clip-path="url(#51cc415cf1)"><g clip-rule="nonzero" clip-path="url(#d455f04d6c)"><path style=" stroke:none;fill-rule:nonzero;fill:#2563eb;fill-opacity:1;" d="M 144.480469 229.558594 L 144.480469 230.085938 L 145.371094 230.085938 L 145.371094 229.558594 Z M 144.480469 229.558594 "/></g></g><g clip-rule="nonzero" clip-path="url(#736ddc7042)"><g clip-rule="nonzero" clip-path="url(#9eb8dd79f3)"><path style=" stroke:none;fill-rule:nonzero;fill:#2563eb;fill-opacity:1;" d="M 69.039062 239.808594 L 69.039062 255.71875 L 86.730469 255.71875 L 86.730469 239.808594 Z M 69.039062 239.808594 "/></g></g><g clip-rule="nonzero" clip-path="url(#771e7c0f69)"><g clip-rule="nonzero" clip-path="url(#e2ad6d9274)"><path style=" stroke:none;fill-rule:nonzero;fill:#2563eb;fill-opacity:1;" d="M 88.121094 195.292969 L 88.121094 238.089844 L 123.355469 238.089844 L 123.355469 195.292969 Z M 88.121094 195.292969 "/></g></g><g clip-rule="nonzero" clip-path="url(#b19373e446)"><g clip-rule="nonzero" clip-path="url(#0ba21f973c)"><path style=" stroke:none;fill-rule:nonzero;fill:#2563eb;fill-opacity:1;" d="M 123.425781 217.878906 L 123.425781 233.066406 L 144.449219 233.066406 L 144.449219 217.878906 Z M 123.425781 217.878906 "/></g></g><g clip-rule="nonzero" clip-path="url(#dad63dcf7d)"><g clip-rule="nonzero" clip-path="url(#d8ff14f995)"><path style=" stroke:none;fill-rule:nonzero;fill:#2563eb;fill-opacity:1;" d="M 104.25 206.136719 L 104.25 235.785156 L 133.929688 235.785156 L 133.929688 206.136719 Z M 104.25 206.136719 "/></g></g><g clip-rule="nonzero" clip-path="url(#89946ebf9b)"><g clip-rule="nonzero" clip-path="url(#dfde195d49)"><path style=" stroke:none;fill-rule:nonzero;fill:#2563eb;fill-opacity:1;" d="M 99.050781 234.171875 L 99.050781 260.070312 L 121.871094 260.070312 L 121.871094 234.171875 Z M 99.050781 234.171875 "/></g></g><g clip-rule="nonzero" clip-path="url(#70eb98ce4d)"><g clip-rule="nonzero" clip-path="url(#ba4165104a)"><path style=" stroke:none;fill-rule:nonzero;fill:#2563eb;fill-opacity:1;" d="M 190.171875 252.972656 L 190.171875 336.738281 L 345.890625 336.738281 L 345.890625 252.972656 Z M 190.171875 252.972656 "/></g></g><g clip-rule="nonzero" clip-path="url(#210f51686f)"><g clip-rule="nonzero" clip-path="url(#3468d32bc1)"><path style=" stroke:none;fill-rule:nonzero;fill:#2563eb;fill-opacity:1;" d="M 167.691406 258.769531 L 167.691406 270.042969 L 181.6875 270.042969 L 181.6875 258.769531 Z M 167.691406 258.769531 "/></g></g><g clip-rule="nonzero" clip-path="url(#2b2ccc5a7d)"><g clip-rule="nonzero" clip-path="url(#12dc011ae0)"><path style=" stroke:none;fill-rule:nonzero;fill:#2563eb;fill-opacity:1;" d="M 83.777344 237.226562 L 83.777344 257.929688 L 102.894531 257.929688 L 102.894531 237.226562 Z M 83.777344 237.226562 "/></g></g><g clip-rule="nonzero" clip-path="url(#a8166fa439)"><g clip-rule="nonzero" clip-path="url(#2d96047dfd)"><path style=" stroke:none;fill-rule:nonzero;fill:#2563eb;fill-opacity:1;" d="M 155.578125 249.683594 L 155.578125 267.886719 L 170.882812 267.886719 L 170.882812 249.683594 Z M 155.578125 249.683594 "/></g></g><g clip-rule="nonzero" clip-path="url(#9bf9919d10)"><rect x="0" width="375" y="0" height="374.999991" style="fill:#2563eb;fill-opacity:1;stroke:none;"/></g><g clip-rule="nonzero" clip-path="url(#2c66e92548)"><g clip-rule="nonzero" clip-path="url(#d570df0e42)"><path style=" stroke:none;fill-rule:nonzero;fill:#2563eb;fill-opacity:1;" d="M 143.824219 240.550781 L 143.824219 266.125 L 162.640625 266.125 L 162.640625 240.550781 Z M 143.824219 240.550781 "/></g></g><g clip-rule="nonzero" clip-path="url(#86c50499c9)"><g clip-rule="nonzero" clip-path="url(#c0d98fd4a2)"><path style=" stroke:none;fill-rule:nonzero;fill:#2563eb;fill-opacity:1;" d="M 113.773438 230.835938 L 113.773438 262.316406 L 142.539062 262.316406 L 142.539062 230.835938 Z M 113.773438 230.835938 "/></g></g><g clip-rule="nonzero" clip-path="url(#34633d5630)"><g clip-rule="nonzero" clip-path="url(#79a108115d)"><path style=" stroke:none;fill-rule:nonzero;fill:#2563eb;fill-opacity:1;" d="M 129.296875 230.328125 L 129.296875 264.429688 L 154.375 264.429688 L 154.375 230.328125 Z M 129.296875 230.328125 "/></g></g></g></svg>